<svg width="1650" height="1080" viewBox="0 0 1650 1080" fill="none" xmlns="http://www.w3.org/2000/svg">
<path d="M1164.36 52.6463C1249.22 11.201 1284.41 -91.1869 1242.97 -176.043C1201.52 -260.9 1099.13 -296.092 1014.28 -254.646L1164.36 52.6463ZM891.558 22.2598L990.698 161.579L891.558 22.2598ZM569.917 264.692L674.587 399.906L569.917 264.692ZM363.35 422.854L251.488 293.526L363.35 422.854ZM309.9 486.371L437.707 599.967L309.9 486.371ZM276.258 517.5L109.336 480.41L276.258 517.5ZM306.756 525.99L304.381 355.013L306.756 525.99ZM494.144 487.628L450.133 322.396L494.144 487.628ZM1225.46 309.656L1267.42 475.421L1225.46 309.656ZM1408.76 260.604L1440.04 428.712L1408.76 260.604ZM1465.67 266.264L1378.2 119.334L1465.67 266.264ZM1192.45 407.447L1115.41 254.79L1192.45 407.447ZM668.956 727.23L773.788 862.319L668.956 727.23ZM208.66 1221.21L348.449 1319.69H348.449L208.66 1221.21ZM179.106 1284.41L175.88 1455.38L179.106 1284.41ZM292.608 1269.01L237.303 1107.2L292.608 1269.01ZM1225.46 876.903L1337.08 1006.44C1395.94 955.723 1413.21 871.687 1379.11 801.864C1345.01 732.042 1268.12 693.99 1191.92 709.231L1225.46 876.903ZM925.828 1231.9L785.172 1134.67L925.828 1231.9ZM534.206 1435.18C467.432 1501.96 467.437 1610.23 534.217 1677.01C600.997 1743.78 709.264 1743.77 776.038 1676.99L534.206 1435.18ZM1014.28 -254.646C930.331 -213.645 856.633 -162.756 792.417 -117.06L990.698 161.579C1053.66 116.778 1107.71 80.3169 1164.36 52.6463L1014.28 -254.646ZM792.417 -117.06C679.818 -36.9335 570.566 47.949 465.246 129.478L674.587 399.906C781.272 317.32 884.795 236.94 990.698 161.579L792.417 -117.06ZM465.246 129.478C411.267 171.264 319.911 234.344 251.488 293.526L475.211 552.182C537.157 498.603 592.377 463.545 674.587 399.906L465.246 129.478ZM251.488 293.526C226.394 315.232 209.093 337.104 198.283 351.386C195.634 354.885 193.125 358.272 191.202 360.867C189.111 363.687 187.63 365.683 186.213 367.555C183.423 371.243 182.343 372.494 182.093 372.775L437.707 599.967C446.47 590.108 453.656 580.875 458.926 573.911C461.54 570.457 464.038 567.084 465.942 564.515C468.013 561.721 469.515 559.697 470.961 557.788C476.527 550.433 476.94 550.687 475.211 552.182L251.488 293.526ZM182.093 372.775C188.562 365.496 194.11 360.71 196.548 358.672C197.969 357.484 199.083 356.612 199.747 356.101C200.417 355.585 200.836 355.28 200.884 355.246C200.93 355.212 200.782 355.32 200.301 355.66C199.782 356.027 199.218 356.422 198.234 357.112C196.608 358.251 193.472 360.443 190.154 362.866C184.49 367.002 171.31 376.763 158.008 390.646C146.159 403.011 119.833 433.172 109.336 480.41L443.181 554.59C438.385 576.173 430.033 592.733 423.078 603.848C416.177 614.878 409.326 622.669 404.934 627.252C400.428 631.954 396.716 635.134 394.849 636.678C393.825 637.524 393.034 638.143 392.561 638.506C392.317 638.693 392.131 638.833 392.013 638.922C391.953 638.967 391.908 639 391.878 639.022C391.848 639.044 391.832 639.056 391.832 639.056C391.831 639.057 391.844 639.047 391.873 639.026C391.901 639.006 391.942 638.976 391.999 638.936C392.114 638.853 392.276 638.738 392.5 638.579C392.99 638.232 393.552 637.837 394.465 637.197C395.909 636.186 399.045 633.997 402.233 631.675C405.467 629.32 410.399 625.643 415.875 621.066C421.139 616.666 429.191 609.548 437.707 599.967L182.093 372.775ZM109.336 480.41C103.146 508.266 101.791 546.249 118.142 586.303C134.536 626.466 162.177 652.657 186.175 668.136C226.678 694.26 266.955 696.736 276.67 697.379C292.332 698.414 305.691 697.511 311.146 697.117C325.907 696.05 313.778 696.902 309.131 696.967L304.381 355.013C296.774 355.119 289.822 355.746 289.476 355.774C286.79 355.994 287.097 355.976 286.486 356.02C285.149 356.117 290.739 355.576 299.226 356.137C301.765 356.304 335.46 357.471 371.543 380.745C393.332 394.798 419.303 419.179 434.765 457.057C450.183 494.828 448.633 530.053 443.181 554.59L109.336 480.41ZM309.131 696.967C400.63 695.696 493.365 664.791 538.155 652.861L450.133 322.396C372.677 343.027 340.702 354.509 304.381 355.013L309.131 696.967ZM538.155 652.861C784.705 587.191 1010.1 540.557 1267.42 475.421L1183.5 143.891C954.101 201.96 689.223 258.713 450.133 322.396L538.155 652.861ZM1267.42 475.421C1301.79 466.722 1337.68 455.692 1364.7 447.806C1394.23 439.192 1418.06 432.802 1440.04 428.712L1377.48 92.4958C1337.86 99.8684 1300.44 110.31 1268.91 119.509C1234.89 129.437 1209.93 137.202 1183.5 143.891L1267.42 475.421ZM1440.04 428.712C1446.57 427.497 1451.17 426.541 1459.32 425.133C1462.92 424.51 1466.22 423.982 1469.05 423.579C1470.44 423.381 1471.55 423.237 1472.39 423.138C1473.26 423.035 1473.62 423.006 1473.53 423.013C1473.51 423.015 1472.51 423.101 1470.76 423.154C1469.19 423.201 1465.5 423.274 1460.39 422.96C1456.06 422.694 1445.73 421.883 1432.54 418.508C1422.77 416.012 1390.78 407.237 1360.37 378.711C1319.81 340.663 1298.53 282.492 1310.13 223.079C1318.79 178.712 1342.53 151.508 1349.71 143.594C1359.41 132.887 1368.04 126.371 1371.23 124.026C1375.14 121.158 1377.79 119.578 1378.2 119.334L1553.14 413.194C1560.96 408.536 1583.16 395.262 1603.1 373.266C1612.09 363.345 1636.84 334.42 1645.78 288.584C1657.67 227.704 1635.96 168.321 1594.34 129.287C1562.88 99.776 1529.22 90.242 1517.27 87.1849C1501.88 83.2492 1488.83 82.0757 1481.37 81.6169C1466.17 80.6832 1452.76 81.5708 1445.06 82.2138C1416.19 84.6257 1379.15 92.1864 1377.48 92.4958L1440.04 428.712ZM1378.2 119.334C1297.01 167.67 1215.03 204.516 1115.41 254.79L1269.48 560.104C1352.46 518.229 1458.35 469.621 1553.14 413.194L1378.2 119.334ZM1115.41 254.79C927.614 349.558 739.073 456.376 564.123 592.142L773.788 862.319C924.05 745.712 1090.78 650.282 1269.48 560.104L1115.41 254.79ZM564.123 592.142C365.365 746.384 207.895 925.393 68.8721 1122.73L348.449 1319.69C473.18 1142.64 608.196 990.823 773.788 862.319L564.123 592.142ZM68.8721 1122.73C74.2282 1115.13 80.0419 1108.66 75.0551 1114.5C73.6367 1116.16 70.5873 1119.71 67.3575 1123.56C61.1626 1130.95 50.9743 1143.37 41.2637 1157.4C36.3456 1164.5 12.8129 1197.31 3.87805 1240.38C-0.715439 1262.53 -9.19385 1324.9 35.2776 1384.28C81.9369 1446.58 148.093 1454.85 175.88 1455.38L182.332 1113.45C203.092 1113.84 264.779 1120.22 309.01 1179.28C351.053 1235.42 342.189 1293.2 338.738 1309.84C334.558 1329.99 327.487 1343.22 326.039 1345.94C324.762 1348.34 323.756 1350 323.245 1350.82C322.966 1351.27 322.757 1351.59 322.631 1351.78C322.567 1351.88 322.519 1351.95 322.488 1352C322.472 1352.02 322.461 1352.04 322.453 1352.05C322.445 1352.06 322.441 1352.06 322.441 1352.06C322.441 1352.06 322.445 1352.06 322.452 1352.05C322.459 1352.04 322.47 1352.02 322.484 1352C322.512 1351.96 322.553 1351.91 322.607 1351.83C322.717 1351.68 322.87 1351.47 323.069 1351.2C323.475 1350.66 324.006 1349.96 324.673 1349.11C326.037 1347.37 327.64 1345.41 329.467 1343.23C331.39 1340.93 332.968 1339.1 335.136 1336.56C336.017 1335.53 337.464 1333.83 338.886 1332.12C339.163 1331.79 343.756 1326.35 348.449 1319.69L68.8721 1122.73ZM175.88 1455.38C227.387 1456.35 285.264 1452.22 347.912 1430.81L237.303 1107.2C224.742 1111.5 209.733 1113.97 182.332 1113.45L175.88 1455.38ZM347.912 1430.81C497.031 1379.84 673.82 1288.63 829.755 1213.13C995.993 1132.65 1142.26 1067.92 1259 1044.58L1191.92 709.231C1026.07 742.404 842.151 827.169 680.729 905.322C509.003 988.464 360.66 1065.04 237.303 1107.2L347.912 1430.81ZM1113.85 747.362C1091.31 766.778 1060.99 800.181 1035.21 829.342C1006.27 862.077 972.632 901.534 939.869 940.744C876.801 1016.22 808.583 1100.8 785.172 1134.67L1066.48 1329.14C1079.3 1310.6 1136.7 1238.53 1202.3 1160.03C1233.86 1122.25 1265.32 1085.39 1291.44 1055.84C1304.53 1041.03 1315.73 1028.68 1324.61 1019.26C1334.66 1008.6 1338.2 1005.48 1337.08 1006.44L1113.85 747.362ZM785.172 1134.67C711.529 1241.2 626.089 1343.29 534.206 1435.18L776.038 1676.99C882.171 1570.85 980.888 1452.96 1066.48 1329.14L785.172 1134.67Z" fill="#F6F3EE"/>
</svg>
