<svg width="1037" height="156" viewBox="0 0 1037 156" fill="none" xmlns="http://www.w3.org/2000/svg">
<path d="M986.254 155.808C972.09 155.808 959.978 149.444 951.767 139.18L950.741 153.961H931.034V0H952.588V65.8952C960.594 56.0417 972.5 49.8833 986.254 49.8833C1014.79 49.8833 1036.14 72.4642 1036.14 102.846C1036.14 133.433 1014.79 155.808 986.254 155.808ZM952.588 102.846C952.588 122.758 964.7 136.307 983.175 136.307C1001.45 136.307 1013.76 122.758 1013.76 102.846C1013.76 82.9335 1001.45 69.5902 983.175 69.5902C964.7 69.5902 952.588 82.9335 952.588 102.846Z" fill="#FF6C24"/>
<path d="M903.76 51.936V153.961H884.258L883.232 142.465C876.252 151.087 866.604 155.808 852.645 155.808C830.885 155.808 813.642 141.849 813.642 115.573V51.936H834.991V113.726C834.991 128.301 843.818 136.101 858.188 136.101C870.299 136.101 882.205 128.916 882.205 111.057V51.936H903.76Z" fill="#FF6C24"/>
<path d="M654.719 155.807C624.543 155.807 602.578 133.637 602.578 103.05C602.578 72.4635 624.748 49.8826 655.13 49.8826C679.764 49.8826 697.623 64.4575 702.55 86.2173L680.995 90.1176C677.916 77.3902 668.268 69.5895 654.925 69.5895C637.476 69.5895 624.954 82.9328 624.954 103.05C624.954 123.168 637.065 136.306 654.514 136.306C669.5 136.306 678.943 127.889 681.817 115.162L703.166 118.857C699.265 140.001 680.174 155.807 654.719 155.807Z" fill="#FF6C24"/>
<path d="M557.254 153.961V0H578.808V153.961H557.254Z" fill="#FF6C24"/>
<path d="M484.946 155.807C452.101 155.807 431.778 133.637 431.778 103.256C431.778 72.4635 453.332 49.8826 483.714 49.8826C513.069 49.8826 533.597 70.0001 533.597 98.7394C533.597 102.024 533.392 105.514 532.571 109.003H453.743C455.796 127.273 467.702 137.127 484.946 137.127C499.931 137.127 508.758 130.353 512.453 119.473L532.571 123.578C527.028 143.696 509.169 155.807 484.946 155.807ZM454.359 92.1704H511.016C509.169 77.1849 498.905 67.9473 483.714 67.9473C469.96 67.9473 458.054 76.1585 454.359 92.1704Z" fill="#FF6C24"/>
<path d="M365.496 155.808C351.332 155.808 339.22 149.444 331.009 139.18L329.982 153.961H310.275V0H331.83V65.8952C339.836 56.0417 351.742 49.8833 365.496 49.8833C394.03 49.8833 415.379 72.4642 415.379 102.846C415.379 133.433 394.03 155.808 365.496 155.808ZM331.83 102.846C331.83 122.758 343.941 136.307 362.417 136.307C380.687 136.307 393.004 122.758 393.004 102.846C393.004 82.9335 380.687 69.5902 362.417 69.5902C343.941 69.5902 331.83 82.9335 331.83 102.846Z" fill="#FF6C24"/>
<path d="M239.169 155.808C208.172 155.808 185.591 133.433 185.591 102.846C185.591 72.4642 208.172 49.8833 239.169 49.8833C270.167 49.8833 292.747 72.4642 292.747 102.846C292.747 133.433 270.167 155.808 239.169 155.808ZM206.529 19.0911C206.529 11.701 212.277 6.15845 219.462 6.15845C226.852 6.15845 232.395 11.701 232.395 19.0911C232.395 26.276 226.852 31.8186 219.462 31.8186C212.277 31.8186 206.529 26.276 206.529 19.0911ZM207.966 102.846C207.966 122.758 220.489 136.307 239.169 136.307C257.644 136.307 270.167 122.758 270.167 102.846C270.167 82.9335 257.644 69.5902 239.169 69.5902C220.489 69.5902 207.966 82.9335 207.966 102.846ZM246.149 19.0911C246.149 11.701 251.691 6.15845 259.081 6.15845C266.266 6.15845 271.809 11.701 271.809 19.0911C271.809 26.276 266.266 31.8186 259.081 31.8186C251.691 31.8186 246.149 26.276 246.149 19.0911Z" fill="#FF6C24"/>
<path d="M119.819 153.961V51.9362H139.937L141.169 66.1006C147.122 56.4524 156.77 50.2939 170.318 50.2939C174.219 50.2939 176.887 50.7045 180.788 51.7309L177.914 72.6696C174.219 71.8484 170.729 71.4379 167.444 71.4379C152.87 71.4379 141.374 81.7019 141.374 100.998V153.961H119.819Z" fill="#FF6C24"/>
<path d="M69.8031 21.3495C45.7852 21.3495 27.9258 36.5402 27.9258 58.9159V61.174C38.1899 52.1416 49.6856 48.2413 61.3866 48.2413C83.7622 48.2413 98.7477 61.5845 98.7477 81.9073C98.7477 101.409 82.9411 114.958 60.5655 114.958C45.1694 114.958 33.0578 108.799 24.2308 98.3298C23.4096 102.435 22.9991 106.952 22.9991 112.084V153.961H0.212891V107.978C0.212891 96.0717 3.08682 84.9865 9.03997 75.7489C7.39772 70.2063 6.5766 64.2532 6.5766 58.3C6.5766 24.8392 32.8526 0.000244141 69.8031 0.000244141H112.091V21.3495H69.8031ZM32.8526 80.0598C38.8057 90.7344 49.275 96.0717 59.9496 96.0717C70.2137 96.0717 77.3985 90.5291 77.3985 81.702C77.3985 72.6697 70.419 67.1271 59.9496 67.1271C50.0961 67.1271 39.8321 71.438 32.8526 80.0598Z" fill="#FF6C24"/>
<path d="M717.675 145.689C732.661 140.501 778.195 112.406 778.195 54.045C778.195 14.2752 726.321 14.2752 726.321 60.9615C726.321 92.2773 734.967 143.959 793.757 143.959" stroke="#FF6C24" stroke-width="20.7495"/>
</svg> 
